<svg xmlns="http://www.w3.org/2000/svg" xmlns:xlink="http://www.w3.org/1999/xlink" width="828.308" height="452.293" viewBox="0 0 828.308 452.293">
  <defs>
    <clipPath id="clip-path">
      <rect id="Rectangle_14" data-name="Rectangle 14" width="814.133" height="185" fill="none"/>
    </clipPath>
  </defs>
  <g id="Group_7" data-name="Group 7" transform="translate(63.274) rotate(20)">
    <g id="Group_6" data-name="Group 6" clip-path="url(#clip-path)">
      <path id="Path_19" data-name="Path 19" d="M1244.9,159.4c-29.588,0,0,35.627,0,35.627s29.584-35.627,0-35.627m0,22.536a10,10,0,1,1,10-10,10,10,0,0,1-10,10" transform="translate(-443.917 -57.445)" fill="#cc2027"/>
      <path id="Path_20" data-name="Path 20" d="M1247.446,165.5a8.632,8.632,0,1,0,8.631,8.631,8.63,8.63,0,0,0-8.631-8.631m0,15.872a7.242,7.242,0,1,1,7.245-7.242,7.244,7.244,0,0,1-7.245,7.242" transform="translate(-446.462 -59.646)" fill="#a00070"/>
      <path id="Path_21" data-name="Path 21" d="M1253.776,224.084a3.356,3.356,0,1,1-3.357-3.357,3.356,3.356,0,0,1,3.357,3.357" transform="translate(-449.435 -79.549)" fill="#3d0046"/>
      <path id="Path_22" data-name="Path 22" d="M15.743,244.477h0a8.932,8.932,0,0,0,8.606-2.357l22.872-23.1a6.386,6.386,0,0,1,6.094-1.7l12.026,3.025a20.527,20.527,0,0,0,9.15.2l1.965-.4a1.934,1.934,0,0,0,.878-3.355l-1.515-1.315a20.527,20.527,0,0,0-8.076-4.306l-11.968-3.248a6.384,6.384,0,0,1-4.482-4.464l-8.639-31.341a8.933,8.933,0,0,0-6.351-6.267c3.327,13.526,3.118,29.277,2.846,35.8a1.387,1.387,0,0,1-1.753,1.28l.008-2.7a2.51,2.51,0,0,0-2.317-2.509l-3.522-.27a2.154,2.154,0,0,0-1.35.349,2.152,2.152,0,0,1-1.408.343l-1.262-.132,1.294.593a2.151,2.151,0,0,1,.961.87l.377.643.624,1.023-2.538-.689a19.935,19.935,0,0,0-5-.7l-8.5-.1-.947-9.443a4.377,4.377,0,0,0-3.788-3.9l-3.048-.4,1.4,13.672-2.367-.027a.372.372,0,0,0-.183.7l2.077,1.135L0,212.627l2.877,1.154a4.377,4.377,0,0,0,5.2-1.525l5.523-7.762,7.376,4.03a19.943,19.943,0,0,0,4.7,1.84l2.55.642-1.045.587-.643.377a2.151,2.151,0,0,1-1.264.288l-1.419-.116,1.165.5a2.158,2.158,0,0,1,1.06.989,2.151,2.151,0,0,0,1.006.965l3.2,1.488a2.509,2.509,0,0,0,3.248-1.054l1.314-2.358a1.388,1.388,0,0,1,.9,1.974c-2.958,5.825-10.485,19.663-20.006,29.83" transform="translate(0 -59.768)" fill="#a62639"/>
      <path id="Path_23" data-name="Path 23" d="M165.037,262.946a1.9,1.9,0,0,1-.475-.06c-2.1-.537-4.205-1.124-6.246-1.745a1.919,1.919,0,0,1,1.119-3.672c1.984.605,4.028,1.176,6.074,1.7a1.919,1.919,0,0,1-.473,3.779" transform="translate(-56.566 -92.76)" fill="#3d0046"/>
      <path id="Path_24" data-name="Path 24" d="M214.142,174.734a1.919,1.919,0,0,1-.015-3.838c4.246-.036,8.546-.248,12.779-.629a1.919,1.919,0,0,1,.345,3.823c-4.337.391-8.741.608-13.091.644Zm-12.941-.423c-.047,0-.1,0-.144,0-4.376-.326-8.759-.838-13.025-1.524a1.919,1.919,0,0,1,.61-3.789c4.159.668,8.431,1.168,12.7,1.485a1.919,1.919,0,0,1-.14,3.833m38.717-1.9a1.919,1.919,0,0,1-.326-3.81c4.212-.732,8.417-1.646,12.5-2.718a1.919,1.919,0,1,1,.975,3.711c-4.185,1.1-8.5,2.038-12.815,2.789a2.016,2.016,0,0,1-.331.028m25.028-6.6a1.919,1.919,0,0,1-.652-3.724c4.047-1.462,8.013-3.11,11.789-4.9a1.919,1.919,0,1,1,1.645,3.468c-3.888,1.843-7.968,3.54-12.129,5.043a1.9,1.9,0,0,1-.652.115m523.2-4.888h-.036c-4.333-.08-8.724-.287-13.047-.615a1.919,1.919,0,1,1,.29-3.827c4.251.322,8.568.526,12.829.605a1.919,1.919,0,0,1-.035,3.837m12.949-.129a1.919,1.919,0,0,1-.073-3.836c4.272-.166,8.582-.457,12.811-.869a1.919,1.919,0,0,1,.371,3.82c-4.3.417-8.688.714-13.034.883H801.1m-38.768-1.827a2.053,2.053,0,0,1-.256-.017c-4.312-.578-8.651-1.286-12.894-2.108a1.919,1.919,0,1,1,.73-3.768c4.17.808,8.434,1.5,12.672,2.072a1.919,1.919,0,0,1-.252,3.82m64.539-.684a1.919,1.919,0,0,1-.3-3.814c4.234-.668,8.476-1.472,12.61-2.388a1.919,1.919,0,1,1,.831,3.746c-4.211.933-8.531,1.752-12.842,2.432a1.944,1.944,0,0,1-.3.024M288.3,154.694a1.919,1.919,0,0,1-1-3.559c3.585-2.176,7.144-4.578,10.577-7.14a1.919,1.919,0,0,1,2.295,3.076c-3.531,2.635-7.192,5.105-10.881,7.345a1.909,1.909,0,0,1-.993.278m448.605-.658a1.932,1.932,0,0,1-.478-.061c-4.232-1.087-8.456-2.312-12.554-3.641a1.919,1.919,0,0,1,1.185-3.65c4.022,1.3,8.169,2.508,12.325,3.574a1.919,1.919,0,0,1-.477,3.778m-24.624-8a1.927,1.927,0,0,1-.709-.136c-4.072-1.623-8.1-3.391-11.98-5.258a1.919,1.919,0,1,1,1.664-3.458c3.8,1.828,7.746,3.561,11.737,5.149a1.919,1.919,0,0,1-.711,3.7m-403.231-6.782a1.919,1.919,0,0,1-1.278-3.35c3.077-2.746,6.179-5.738,9.217-8.891a1.919,1.919,0,1,1,2.763,2.663c-3.1,3.222-6.276,6.28-9.425,9.091a1.908,1.908,0,0,1-1.277.487m379.914-4.45a1.908,1.908,0,0,1-.949-.253c-3.7-2.111-7.446-4.413-11.137-6.841a1.919,1.919,0,0,1,2.109-3.207c3.625,2.384,7.3,4.643,10.931,6.715a1.92,1.92,0,0,1-.954,3.586m-361.9-14.145a1.919,1.919,0,0,1-1.459-3.165c2.637-3.09,5.292-6.355,8.118-9.983a1.919,1.919,0,0,1,3.027,2.359c-2.861,3.673-5.552,6.982-8.227,10.115a1.914,1.914,0,0,1-1.46.674m340.264-.047a1.909,1.909,0,0,1-1.14-.376c-3.353-2.481-6.814-5.172-10.289-8a1.919,1.919,0,0,1,2.422-2.977c3.43,2.791,6.844,5.445,10.149,7.891a1.919,1.919,0,0,1-1.142,3.461m-20.108-16.3a1.913,1.913,0,0,1-1.263-.475c-3.049-2.667-6.211-5.51-9.668-8.689a1.919,1.919,0,1,1,2.6-2.824c3.432,3.158,6.571,5.979,9.6,8.625a1.919,1.919,0,0,1-1.264,3.363m-304.183-4.04a1.919,1.919,0,0,1-1.545-3.055c2.624-3.574,5.193-7.149,7.577-10.479a1.919,1.919,0,1,1,3.12,2.234c-2.391,3.341-4.967,6.927-7.6,10.517a1.916,1.916,0,0,1-1.548.784M628.123,86.8a1.913,1.913,0,0,1-1.318-.524q-3.452-3.265-6.892-6.544l-2.5-2.381a1.919,1.919,0,0,1,2.645-2.781l2.5,2.382q3.439,3.273,6.883,6.535a1.919,1.919,0,0,1-1.32,3.313M358.179,79.241a1.919,1.919,0,0,1-1.553-3.043q1.959-2.708,3.934-5.394c1.279-1.736,2.558-3.439,3.8-5.064a1.919,1.919,0,0,1,3.047,2.333c-1.229,1.606-2.493,3.29-3.758,5.007q-1.965,2.67-3.914,5.368a1.916,1.916,0,0,1-1.556.794M609.314,68.988a1.913,1.913,0,0,1-1.31-.517c-3.463-3.238-6.575-6.095-9.514-8.736a1.919,1.919,0,1,1,2.565-2.855c2.958,2.658,6.089,5.532,9.57,8.787a1.919,1.919,0,0,1-1.311,3.32M373.971,58.709a1.919,1.919,0,0,1-1.469-3.151c2.872-3.426,5.782-6.718,8.649-9.78a1.919,1.919,0,0,1,2.8,2.622c-2.819,3.012-5.682,6.25-8.509,9.623a1.914,1.914,0,0,1-1.472.686m216.042-7a1.914,1.914,0,0,1-1.238-.454q-.741-.627-1.484-1.248c-2.787-2.329-5.659-4.621-8.534-6.814a1.919,1.919,0,1,1,2.327-3.052c2.92,2.226,5.836,4.555,8.667,6.92q.753.629,1.5,1.264a1.919,1.919,0,0,1-1.241,3.384M391.7,39.84a1.919,1.919,0,0,1-1.312-3.319c3.252-3.046,6.579-5.936,9.889-8.587a1.919,1.919,0,0,1,2.4,2.995c-3.233,2.59-6.486,5.414-9.665,8.394a1.914,1.914,0,0,1-1.311.518m177.71-3.832a1.908,1.908,0,0,1-1.078-.333c-3.565-2.425-7.208-4.756-10.827-6.928a1.919,1.919,0,1,1,1.975-3.29c3.681,2.209,7.385,4.58,11.01,7.045a1.919,1.919,0,0,1-1.081,3.506M411.925,23.7a1.919,1.919,0,0,1-1.064-3.517c3.7-2.457,7.5-4.717,11.285-6.718a1.919,1.919,0,1,1,1.793,3.392c-3.676,1.942-7.362,4.136-10.955,6.523a1.907,1.907,0,0,1-1.059.32m135.26-1.011a1.909,1.909,0,0,1-.883-.217c-3.838-2-7.73-3.861-11.569-5.546a1.919,1.919,0,0,1,1.541-3.514c3.916,1.718,7.885,3.621,11.8,5.656a1.919,1.919,0,0,1-.887,3.621M523.465,12.315a1.917,1.917,0,0,1-.641-.111c-4.075-1.444-8.187-2.72-12.22-3.794a1.919,1.919,0,1,1,.987-3.708c4.132,1.1,8.343,2.407,12.515,3.885a1.919,1.919,0,0,1-.641,3.728M434.8,11.664a1.919,1.919,0,0,1-.706-3.7,115.147,115.147,0,0,1,12.5-4.132,1.919,1.919,0,0,1,.992,3.707A111.385,111.385,0,0,0,435.5,11.529a1.909,1.909,0,0,1-.7.135M498.454,5.7a1.877,1.877,0,0,1-.33-.029c-4.237-.732-8.5-1.259-12.662-1.564a1.919,1.919,0,1,1,.281-3.827c4.289.315,8.676.857,13.036,1.611a1.919,1.919,0,0,1-.324,3.81m-38.695-.709a1.919,1.919,0,0,1-.276-3.818A117.262,117.262,0,0,1,472.594,0h.065a1.919,1.919,0,0,1,.062,3.836A113.655,113.655,0,0,0,460.04,4.965a1.9,1.9,0,0,1-.281.02" transform="translate(-67.184)" fill="#a1a0a4"/>
      <path id="Path_25" data-name="Path 25" d="M1226.315,235.417a1.919,1.919,0,0,1-.536-3.762c2.028-.591,4.064-1.22,6.049-1.87a1.918,1.918,0,0,1,1.194,3.646c-2.026.665-4.1,1.306-6.17,1.908a1.911,1.911,0,0,1-.537.077" transform="translate(-441.266 -82.779)" fill="#3d0046"/>
    </g>
  </g>
</svg>
