<svg id="Group_552" data-name="Group 552" xmlns="http://www.w3.org/2000/svg" xmlns:xlink="http://www.w3.org/1999/xlink" width="944.091" height="263.394" viewBox="0 0 944.091 263.394">
  <defs>
    <clipPath id="clip-path">
      <rect id="Rectangle_229" data-name="Rectangle 229" width="944.091" height="263.394" fill="none"/>
    </clipPath>
  </defs>
  <g id="Group_551" data-name="Group 551" clip-path="url(#clip-path)">
    <path id="Path_250" data-name="Path 250" d="M1246.266,308.513c-34.331,0,0,38.575,0,38.575s34.327-38.575,0-38.575m0,24.4c-6.408,0-11.6-4.848-11.6-10.827s5.191-10.823,11.6-10.823,11.6,4.848,11.6,10.823-5.195,10.827-11.6,10.827" transform="translate(-317.432 -94.861)" fill="#a92537"/>
    <path id="Path_251" data-name="Path 251" d="M1248.087,314.62c-5.536,0-10.018,4.183-10.018,9.345s4.483,9.348,10.018,9.348,10.014-4.186,10.014-9.348-4.486-9.345-10.014-9.345m0,17.186a7.86,7.86,0,1,1,8.406-7.841,8.14,8.14,0,0,1-8.406,7.841" transform="translate(-319.252 -96.738)" fill="#a00070"/>
    <path id="Path_252" data-name="Path 252" d="M1254.109,373.478a3.9,3.9,0,1,1-3.895-3.634,3.771,3.771,0,0,1,3.895,3.634" transform="translate(-321.38 -113.718)" fill="#a92537"/>
    <path id="Path_253" data-name="Path 253" d="M41.216,94h0A10.085,10.085,0,0,0,48.7,87.331L59.329,53.557A7.2,7.2,0,0,1,64.615,48.8l13.947-3.3a24.478,24.478,0,0,0,9.452-4.516l1.783-1.4a2.05,2.05,0,0,0-.954-3.648l-2.272-.474a25.476,25.476,0,0,0-10.618.05l-14.01,3.059a7.755,7.755,0,0,1-7.036-1.949L28.816,11.207A10.856,10.856,0,0,0,18.877,8.5C29.726,19.678,38.193,34.794,41.512,41.154a1.484,1.484,0,0,1-1.085,2.121L38.949,40.7A3.012,3.012,0,0,0,35.2,39.5l-3.745,1.553a2.44,2.44,0,0,0-1.186,1.026,2.449,2.449,0,0,1-1.249,1.051l-1.361.523,1.648-.1a2.645,2.645,0,0,1,1.461.334l.738.419,1.2.654-2.971.649a24.2,24.2,0,0,0-5.487,1.908l-8.728,4.276-6.171-8.51a5.283,5.283,0,0,0-6.019-1.771L0,42.7l8.96,12.31L6.529,56.2a.4.4,0,0,0,.2.76l2.746.014L7.591,71.749l3.573-.38a4.922,4.922,0,0,0,4.465-4.125L16.991,57.01l9.752.047a24.715,24.715,0,0,0,5.812-.663l2.958-.7-.744,1.1-.449.689a2.454,2.454,0,0,1-1.132.925l-1.512.618,1.466-.12a2.636,2.636,0,0,1,1.628.4,2.635,2.635,0,0,0,1.558.4l4.091-.23A2.808,2.808,0,0,0,43.155,56.8l.042-2.922a1.593,1.593,0,0,1,2.01,1.418c.19,7.071.129,24.128-3.99,38.71" transform="translate(0 -2.529)" fill="#a62639"/>
    <path id="Path_254" data-name="Path 254" d="M156.58,44.306a2.2,2.2,0,0,1-2.179-1.66,2.086,2.086,0,0,1,1.733-2.453q3.637-.7,7.28-1.381a2.224,2.224,0,0,1,2.622,1.627,2.086,2.086,0,0,1-1.743,2.446q-3.633.684-7.263,1.377a2.372,2.372,0,0,1-.45.043" transform="translate(-39.803 -11.921)" fill="#a1a0a4"/>
    <path id="Path_255" data-name="Path 255" d="M956.729,236.341a2.272,2.272,0,0,1-1.874-.952c-2.452-3.553-5.183-7.317-8.348-11.506a1.991,1.991,0,0,1,.537-2.9,2.329,2.329,0,0,1,3.1.5c3.2,4.237,5.965,8.048,8.451,11.649a2,2,0,0,1-.666,2.872,2.33,2.33,0,0,1-1.2.331m-17.166-22.917a2.279,2.279,0,0,1-1.8-.851l-2.249-2.864q-1.876-2.388-3.752-4.785-1.415-1.809-2.853-3.6a1.987,1.987,0,0,1,.449-2.908,2.332,2.332,0,0,1,3.116.42q1.454,1.813,2.884,3.641,1.873,2.4,3.748,4.778l2.251,2.867a1.989,1.989,0,0,1-.482,2.9,2.325,2.325,0,0,1-1.314.4M921.5,191.111a2.287,2.287,0,0,1-1.734-.774c-3.1-3.583-6.315-7.173-9.564-10.673a1.983,1.983,0,0,1,.225-2.931,2.339,2.339,0,0,1,3.141.209c3.283,3.537,6.535,7.165,9.664,10.785a1.984,1.984,0,0,1-.335,2.922,2.314,2.314,0,0,1-1.4.461M901.877,169.97a2.3,2.3,0,0,1-1.632-.663c-3.363-3.378-6.84-6.756-10.335-10.038a1.98,1.98,0,0,1,.01-2.938,2.34,2.34,0,0,1,3.149.009c3.53,3.316,7.041,6.726,10.438,10.139a1.981,1.981,0,0,1-.116,2.936,2.312,2.312,0,0,1-1.515.555m-21.128-19.851a2.311,2.311,0,0,1-1.527-.566c-3.586-3.155-7.294-6.314-11.021-9.39a1.981,1.981,0,0,1-.192-2.932,2.336,2.336,0,0,1,3.142-.18c3.762,3.1,7.505,6.294,11.126,9.479a1.981,1.981,0,0,1,.092,2.937,2.3,2.3,0,0,1-1.62.652m-22.461-18.54a2.313,2.313,0,0,1-1.421-.479c-3.794-2.94-7.706-5.88-11.628-8.737a1.986,1.986,0,0,1-.385-2.916,2.335,2.335,0,0,1,3.125-.359c3.956,2.882,7.9,5.848,11.732,8.816a1.983,1.983,0,0,1,.29,2.925,2.288,2.288,0,0,1-1.714.75m-23.637-17.224a2.322,2.322,0,0,1-1.316-.4c-3.978-2.725-8.069-5.445-12.162-8.084a1.992,1.992,0,0,1-.566-2.89,2.328,2.328,0,0,1,3.1-.528c4.128,2.661,8.254,5.4,12.266,8.153a1.989,1.989,0,0,1,.477,2.9,2.278,2.278,0,0,1-1.8.848M809.98,98.444a2.323,2.323,0,0,1-1.212-.337c-4.139-2.512-8.388-5.013-12.631-7.436a2,2,0,0,1-.737-2.857,2.322,2.322,0,0,1,3.061-.688c4.277,2.443,8.561,4.965,12.734,7.5a2,2,0,0,1,.653,2.875,2.272,2.272,0,0,1-1.869.945M784.4,83.836a2.336,2.336,0,0,1-1.109-.278c-4.284-2.3-8.673-4.587-13.042-6.793a2.01,2.01,0,0,1-.9-2.816,2.312,2.312,0,0,1,3.018-.839c4.4,2.224,8.825,4.527,13.143,6.847a2,2,0,0,1,.819,2.837,2.261,2.261,0,0,1-1.932,1.042m-26.37-13.32a2.342,2.342,0,0,1-1.007-.226c-4.408-2.091-8.917-4.162-13.4-6.157a2.02,2.02,0,0,1-1.052-2.769,2.3,2.3,0,0,1,2.969-.981c4.517,2.01,9.059,4.1,13.5,6.2a2.014,2.014,0,0,1,.976,2.794,2.25,2.25,0,0,1-1.987,1.136M730.971,58.473a2.351,2.351,0,0,1-.907-.181c-4.517-1.882-9.131-3.741-13.712-5.525a2.03,2.03,0,0,1-1.2-2.717,2.286,2.286,0,0,1,2.912-1.117c4.614,1.8,9.261,3.669,13.812,5.566A2.024,2.024,0,0,1,733,57.242a2.239,2.239,0,0,1-2.033,1.231M703.308,47.7a2.368,2.368,0,0,1-.807-.142c-4.6-1.672-9.309-3.319-13.982-4.9A2.043,2.043,0,0,1,687.182,40a2.277,2.277,0,0,1,2.851-1.247c4.706,1.589,9.444,3.248,14.082,4.932a2.036,2.036,0,0,1,1.268,2.689,2.23,2.23,0,0,1-2.075,1.325m-28.183-9.512a2.365,2.365,0,0,1-.707-.109c-4.695-1.467-9.477-2.9-14.214-4.269a2.055,2.055,0,0,1-1.47-2.6,2.26,2.26,0,0,1,2.784-1.372c4.771,1.375,9.587,2.821,14.314,4.3a2.049,2.049,0,0,1,1.4,2.63,2.22,2.22,0,0,1-2.111,1.419m-28.63-8.251a2.4,2.4,0,0,1-.608-.08c-4.762-1.258-9.61-2.483-14.411-3.639a2.069,2.069,0,0,1-1.6-2.53,2.246,2.246,0,0,1,2.712-1.492c4.834,1.163,9.717,2.4,14.512,3.663a2.063,2.063,0,0,1,1.535,2.565,2.212,2.212,0,0,1-2.141,1.512M186.186,28.3A2.194,2.194,0,0,1,184,26.619a2.09,2.09,0,0,1,1.765-2.434c4.91-.884,9.87-1.756,14.743-2.594a2.217,2.217,0,0,1,2.593,1.667,2.093,2.093,0,0,1-1.786,2.42c-4.86.836-9.808,1.706-14.706,2.588a2.394,2.394,0,0,1-.424.038m29.471-5.064a2.19,2.19,0,0,1-2.19-1.72,2.1,2.1,0,0,1,1.809-2.405c4.94-.807,9.916-1.6,14.791-2.353a2.21,2.21,0,0,1,2.56,1.709,2.1,2.1,0,0,1-1.832,2.39c-4.861.751-9.824,1.542-14.751,2.347a2.363,2.363,0,0,1-.387.032m401.83-.288a2.359,2.359,0,0,1-.508-.055q-1.409-.306-2.819-.607c-3.887-.828-7.844-1.638-11.759-2.407a2.084,2.084,0,0,1-1.72-2.461,2.229,2.229,0,0,1,2.638-1.6c3.939.774,7.921,1.589,11.833,2.422q1.42.3,2.84.611a2.077,2.077,0,0,1,1.662,2.5,2.2,2.2,0,0,1-2.166,1.606M245.221,18.667a2.186,2.186,0,0,1-2.2-1.758,2.1,2.1,0,0,1,1.856-2.373c4.952-.722,9.944-1.425,14.838-2.091a2.211,2.211,0,0,1,2.524,1.756,2.106,2.106,0,0,1-1.881,2.356c-4.88.664-9.856,1.365-14.795,2.084a2.443,2.443,0,0,1-.346.025m342.949-1.48a2.44,2.44,0,0,1-.416-.036c-4.859-.858-9.806-1.684-14.7-2.454a2.1,2.1,0,0,1-1.826-2.394,2.217,2.217,0,0,1,2.566-1.7c4.928.775,9.9,1.605,14.792,2.468a2.091,2.091,0,0,1,1.774,2.427,2.194,2.194,0,0,1-2.186,1.692m-313.3-2.555a2.181,2.181,0,0,1-2.2-1.8,2.108,2.108,0,0,1,1.907-2.338c4.954-.625,9.961-1.233,14.883-1.8a2.2,2.2,0,0,1,2.484,1.805,2.111,2.111,0,0,1-1.934,2.318c-4.906.571-9.9,1.176-14.835,1.8a2.474,2.474,0,0,1-.3.019M558.623,12.54a2.419,2.419,0,0,1-.329-.023c-4.883-.676-9.862-1.319-14.8-1.913a2.111,2.111,0,0,1-1.924-2.326,2.2,2.2,0,0,1,2.493-1.8c4.966.6,9.973,1.244,14.883,1.924a2.1,2.1,0,0,1,1.876,2.359,2.185,2.185,0,0,1-2.2,1.774M304.612,11.18A2.178,2.178,0,0,1,302.4,9.335a2.115,2.115,0,0,1,1.961-2.3c4.969-.525,9.99-1.028,14.924-1.5A2.19,2.19,0,0,1,321.728,7.4a2.12,2.12,0,0,1-1.99,2.277c-4.917.465-9.922.967-14.873,1.49a2.4,2.4,0,0,1-.253.014M528.9,8.965c-.081,0-.162,0-.246-.012-4.914-.5-9.916-.973-14.868-1.4A2.123,2.123,0,0,1,511.776,5.3a2.183,2.183,0,0,1,2.42-1.88c4.978.425,10.008.9,14.948,1.4a2.117,2.117,0,0,1,1.97,2.292A2.177,2.177,0,0,1,528.9,8.965M334.427,8.358a2.172,2.172,0,0,1-2.215-1.893,2.124,2.124,0,0,1,2.019-2.254c4.991-.416,10.025-.807,14.961-1.161a2.181,2.181,0,0,1,2.39,1.912,2.129,2.129,0,0,1-2.049,2.231c-4.918.352-9.933.742-14.905,1.157-.068,0-.135.008-.2.008M499.062,6.416c-.055,0-.11,0-.165-.006-4.915-.337-9.933-.641-14.915-.9a2.136,2.136,0,0,1-2.1-2.191,2.167,2.167,0,0,1,2.348-1.957c5.006.263,10.05.569,14.99.909A2.129,2.129,0,0,1,501.28,4.49a2.17,2.17,0,0,1-2.218,1.925m-134.755-.2a2.167,2.167,0,0,1-2.22-1.945,2.132,2.132,0,0,1,2.079-2.206c5.009-.3,10.051-.568,14.99-.8a2.168,2.168,0,0,1,2.336,1.97,2.138,2.138,0,0,1-2.111,2.18c-4.918.232-9.941.5-14.93.8-.048,0-.1,0-.144,0M469.142,4.839h-.09c-4.931-.182-9.958-.33-14.94-.438a2.148,2.148,0,0,1-2.174-2.125A2.149,2.149,0,0,1,454.216.246c5.006.109,10.057.258,15.013.44a2.142,2.142,0,0,1,2.137,2.158,2.163,2.163,0,0,1-2.223,2m-74.905-.03a2.163,2.163,0,0,1-2.223-2A2.142,2.142,0,0,1,394.156.655c5-.171,10.046-.31,15.009-.414a2.164,2.164,0,0,1,2.275,2.03,2.147,2.147,0,0,1-2.176,2.123c-4.941.1-9.97.242-14.945.413h-.083m29.96-.624a2.158,2.158,0,0,1-2.226-2.062A2.154,2.154,0,0,1,424.18.03c2.525-.018,5.052-.037,7.573-.027q3.723,0,7.445.026a2.153,2.153,0,0,1,2.209,2.093,2.154,2.154,0,0,1-2.243,2.062c-2.508-.017-5.022-.029-7.524-.026q-3.714,0-7.427.027Z" transform="translate(-47.437 0)" fill="#a1a0a4"/>
    <path id="Path_256" data-name="Path 256" d="M1238.257,362.657a2.25,2.25,0,0,1-1.988-1.14c-1.082-1.994-2.241-4.026-3.444-6.04a2.006,2.006,0,0,1,.86-2.826,2.312,2.312,0,0,1,3.029.8c1.233,2.062,2.419,4.143,3.528,6.186a2.015,2.015,0,0,1-.98,2.793,2.359,2.359,0,0,1-1,.224" transform="translate(-317.828 -108.351)" fill="#a1a0a4"/>
  </g>
</svg>
