<svg id="_003-facebook" data-name="003-facebook" xmlns="http://www.w3.org/2000/svg" width="30" height="30" viewBox="0 0 30 30">
  <g id="Group_581" data-name="Group 581">
    <g id="Group_580" data-name="Group 580">
      <path id="Path_284" data-name="Path 284" d="M210.86,154.084v1.406h-1.406V157.6h1.406v6.326h2.812V157.6h1.87l.239-2.109h-2.109v-1.23c0-.569.056-.872.935-.872h1.174v-2.116H213.9C211.647,151.272,210.86,152.326,210.86,154.084Z" transform="translate(-197.279 -142.598)" fill="#fff"/>
      <path id="Path_285" data-name="Path 285" d="M15,0A15,15,0,1,0,30,15,15,15,0,0,0,15,0Zm0,28.636A13.636,13.636,0,1,1,28.636,15,13.636,13.636,0,0,1,15,28.636Z" fill="#fff"/>
    </g>
  </g>
</svg>
