<svg xmlns="http://www.w3.org/2000/svg" width="103.403" height="106.864" viewBox="0 0 103.403 106.864">
  <g id="Group_597" data-name="Group 597" transform="translate(423.698 -319)">
    <rect id="Rectangle_230" data-name="Rectangle 230" width="102.138" height="104.843" transform="translate(-423.698 321.021)" fill="#be061b"/>
    <path id="Path_271" data-name="Path 271" d="M75.357,94.022a3.594,3.594,0,0,0,1.35-.277,5.378,5.378,0,0,0,1.375-.832A10.8,10.8,0,0,0,79.553,91.3q.647-.877,1.219-1.816,1.2-1.947,2.229-3.995t1.977-4.146q2.753-6,5.137-12.161T94.5,56.716a2.981,2.981,0,0,1,.5-.985.94.94,0,0,1,.75-.328,2.542,2.542,0,0,1,.4.035,2.3,2.3,0,0,1,.476.134,12.275,12.275,0,0,0,2.026.484,13.993,13.993,0,0,0,2.078.156c.3,0,.6-.009.892-.025s.591-.043.892-.076a7.181,7.181,0,0,0,2.78-.821,5.109,5.109,0,0,0,2-2.106c.068-.139.134-.29.2-.455s.121-.315.173-.454a1.447,1.447,0,0,0,.046-.169.721.721,0,0,0,.02-.167.3.3,0,0,0-.134-.269.78.78,0,0,0-.249-.135.731.731,0,0,0-.222-.033.559.559,0,0,0-.421.214,2.588,2.588,0,0,0-.32.493,4.094,4.094,0,0,1-2.194,1.934,7.451,7.451,0,0,1-2.549.318,8.634,8.634,0,0,1-2.045-.265,16.386,16.386,0,0,1-1.993-.643,8.379,8.379,0,0,1-1.189-.518.633.633,0,0,1-.358-.592,2.553,2.553,0,0,1,.076-.551q.076-.328.227-.827,1.47-4.894,2.947-9.778t2.873-9.8a82.6,82.6,0,0,0,2.265-10,64.559,64.559,0,0,0,.829-10.181q0-1.673-.1-3.4a26.047,26.047,0,0,0-.273-2.746,13.407,13.407,0,0,0-.7-2.67A4.455,4.455,0,0,0,102.943.627,2.675,2.675,0,0,0,101.193,0a3.563,3.563,0,0,0-1.126.2,6.193,6.193,0,0,0-1.229.575,8.266,8.266,0,0,0-1.252.988q-.577.555-1.1,1.166a23.333,23.333,0,0,0-2.355,3.262,34.23,34.23,0,0,0-1.849,3.566,69.818,69.818,0,0,0-4.231,12.119,78.8,78.8,0,0,0-2.06,12.673q-.076.936-.121,1.884t-.047,1.884a32.818,32.818,0,0,0,.219,3.831,27.584,27.584,0,0,0,.723,3.806,17.561,17.561,0,0,0,1.69,4.162,9.3,9.3,0,0,0,3.054,3.2,2.946,2.946,0,0,1,.841.778,1.407,1.407,0,0,1,.235.8,3.772,3.772,0,0,1-.269,1.244q-1.484,4.291-3.121,8.524t-3.474,8.4q-1.493,3.414-3.108,6.774a69.56,69.56,0,0,1-3.587,6.547q-.614,1.021-1.32,1.993A8.829,8.829,0,0,1,76.03,90.12a1.34,1.34,0,0,1-.635-.512,2.009,2.009,0,0,1-.206-.564c-.156-.506-.307-1.018-.458-1.534s-.279-1.038-.383-1.561Q72.386,74.971,71.26,63.89T69.435,41.68q-.319-5.274-.468-10.547t-.542-10.547q-.069-.808-.181-1.607a9.124,9.124,0,0,0-.358-1.555,1.522,1.522,0,0,0-.5-.761,1.392,1.392,0,0,0-.879-.282,1.238,1.238,0,0,0-.833.3,1.7,1.7,0,0,0-.479.778,8.392,8.392,0,0,0-.32,1.451,14.663,14.663,0,0,0-.118,1.476q-.444,7.677-.436,15.305-.007,9.109.655,18.171t2.07,18.094q.6,3.965,1.391,7.9t1.871,7.8q.314,1.167.736,2.3a9.989,9.989,0,0,0,1.115,2.144,4.759,4.759,0,0,0,1.471,1.438,3.331,3.331,0,0,0,1.725.479M93.725,51.671a7.8,7.8,0,0,1-2.128-2.25,11.821,11.821,0,0,1-1.169-2.629,18.064,18.064,0,0,1-.706-3.169,24.22,24.22,0,0,1-.2-3.221q.007-1.009.066-2.018a84.93,84.93,0,0,1,2.262-15.272,77.623,77.623,0,0,1,5.14-14.567,21.039,21.039,0,0,1,1.363-2.527,13.916,13.916,0,0,1,1.766-2.25,4.517,4.517,0,0,1,.668-.577,1,1,0,0,1,.543-.2.627.627,0,0,1,.521.331,3.858,3.858,0,0,1,.421,1.014,17.749,17.749,0,0,1,.436,2q.163,1.014.236,2.073.1,1.614.1,3.229a60.037,60.037,0,0,1-.731,9.107A88.928,88.928,0,0,1,100.42,29.7q-1.342,5.1-2.876,10.146T94.364,49.922Z" transform="translate(-474.997 319)" fill="#fff" fill-rule="evenodd"/>
    <path id="Path_272" data-name="Path 272" d="M102.1,77.98a3.469,3.469,0,0,0,2.287-.909,6.413,6.413,0,0,0,1.005-1.118,11.364,11.364,0,0,0,.778-1.27,26.941,26.941,0,0,0,1.3-2.813q.572-1.446,1.022-2.939,2.817-9.189,5.584-18.434.4-1.3.707-2.658l.033-.2c0-.241-.14-.4-.438-.471h-.068a.633.633,0,0,0-.29.063.468.468,0,0,0-.214.239l-.471,1.279q-1.42,4.5-2.892,8.948-1.068,3.339-2.221,6.652t-2.624,6.5q-.4.886-.879,1.728a11.418,11.418,0,0,1-1.106,1.6,4.5,4.5,0,0,1-.635.622.889.889,0,0,1-.509.219.629.629,0,0,1-.5-.282,3.421,3.421,0,0,1-.446-.862,9.519,9.519,0,0,1-.6-2.083,20.475,20.475,0,0,1-.244-2.157q-.1-1.725-.1-3.4a75.639,75.639,0,0,1,.454-7.93q.437-3.946,1.06-7.881.917-5.957,2.182-11.84t3.066-11.64a3.006,3.006,0,0,1,.884-1.493,2.908,2.908,0,0,1,1.64-.559q5.073-.482,10.161-1.043t10.159-1.144a25.411,25.411,0,0,0,2.813-.441,15,15,0,0,0,2.739-.871,1.353,1.353,0,0,0,.444-.265.586.586,0,0,0,.194-.441v-.134a.64.64,0,0,0-.673-.539,1.383,1.383,0,0,0-.219.02c-.077.014-.15.028-.219.047q-.881.215-1.769.449a11.486,11.486,0,0,1-1.8.325q-5.2.5-10.4.967t-10.425.917c-.15.019-.3.039-.458.063a3.958,3.958,0,0,1-.484.038,1.53,1.53,0,0,1-.425-.06,1.573,1.573,0,0,1-.449-.21v-.1a3.087,3.087,0,0,1,.214-1.052q.2-.5.391-1,1.574-4.088,3.1-8.174a8.934,8.934,0,0,0,.383-1.219,5.656,5.656,0,0,0,.156-1.27V9.591a2.219,2.219,0,0,0-.312-1.1,2,2,0,0,0-.866-.748,1.779,1.779,0,0,0-.807-.2,1.759,1.759,0,0,0-.682.143,2.53,2.53,0,0,0-.63.4,4.19,4.19,0,0,0-.8.846q-.324.463-.618.97a51.314,51.314,0,0,0-2.7,4.794q-1.219,2.467-2.317,5-.4,1.047-.788,2.171a2.724,2.724,0,0,1-1.164,1.564,6.373,6.373,0,0,1-2.01.487q-1.068.087-2.161.186-3.313.359-6.607.8a36.379,36.379,0,0,0-6.481,1.484q-2.077.714-2.086,1.58a.849.849,0,0,0,.03.219.654.654,0,0,0,.106.219,1.381,1.381,0,0,0,.542.614,1.312,1.312,0,0,0,.668.159,3.33,3.33,0,0,0,.725-.1c.244-.06.485-.117.723-.173q2.068-.484,4.138-.958t4.137-.859q1.893-.369,3.815-.668a29.029,29.029,0,0,1,3.889-.34,4.675,4.675,0,0,1-.214,1.353c-.132.4-.263.807-.391,1.2A144.75,144.75,0,0,0,96.94,43.478a87.156,87.156,0,0,0-1.4,15.126q.007,2.413.167,4.877a48,48,0,0,0,.521,4.907,26.545,26.545,0,0,0,1.229,4.781,13.95,13.95,0,0,0,.879,1.993A7.306,7.306,0,0,0,99.648,76.9a4.1,4.1,0,0,0,1.191.8,3.142,3.142,0,0,0,1.265.274" transform="translate(-464.661 323.336)" fill="#fff"/>
    <path id="Path_273" data-name="Path 273" d="M119.945,65.2a3.347,3.347,0,0,0,1.093-.227,3.818,3.818,0,0,0,1.093-.682,7.19,7.19,0,0,0,1.178-1.181,13.167,13.167,0,0,0,1.076-1.711,28.145,28.145,0,0,0,1.393-2.809q.6-1.406,1.164-2.91,1.767-4.653,3.129-8.848T133,38.391a8.088,8.088,0,0,0,.471-1.547l.035-.2a.523.523,0,0,0-.088-.312.432.432,0,0,0-.315-.159.717.717,0,0,0-.307.088.477.477,0,0,0-.232.214c-.17.287-.336.588-.493.9a9.511,9.511,0,0,0-.416.951l-4.272,11q-1.03,2.583-2.136,5.017T122.9,58.978a13.173,13.173,0,0,1-.907,1.5,4.957,4.957,0,0,1-1.413,1.325,10.271,10.271,0,0,1-.5-1.99,14.289,14.289,0,0,1-.143-2.114q.007-1.252.169-3.061.248-2.6.718-5t1.2-5.14q.728-2.732,1.75-6.306a43.411,43.411,0,0,0,.959-4.267,28.612,28.612,0,0,0,.455-4.345v-.3a3.856,3.856,0,0,0-.216-1.43,1.842,1.842,0,0,0-1-1.026,1.49,1.49,0,0,0-.4-.134,2.31,2.31,0,0,0-.4-.035,3.241,3.241,0,0,0-1.1.211,3.783,3.783,0,0,0-1.022.564,18.207,18.207,0,0,0-2.385,2.283,32.823,32.823,0,0,0-2.056,2.561q-2.023,2.755-4.2,6.03t-4.45,7.29a15.192,15.192,0,0,1-.9,1.383,7.722,7.722,0,0,1-1.181,1.307,2.28,2.28,0,0,1-.194-.658,4.077,4.077,0,0,1-.041-.584v-.775q.04-1.408.274-3.229t.583-3.678q.347-1.857.723-3.385l.068-.64a2.056,2.056,0,0,0-.26-1.063,1.972,1.972,0,0,0-.917-.786,1.737,1.737,0,0,0-.707-.135,1.692,1.692,0,0,0-1.043.362,2.922,2.922,0,0,0-.841,1.118,23.006,23.006,0,0,0-1.163,3.486q-.534,2.058-.859,4.138a24.791,24.791,0,0,0-.334,3.577,20.673,20.673,0,0,0,.606,4.945,3.735,3.735,0,0,0,.836,1.749,2.648,2.648,0,0,0,1.72.841l.336.035a2.428,2.428,0,0,0,1.539-.559,5.01,5.01,0,0,0,1.085-1.292q.763-1.231,1.493-2.464t1.366-2.514q1.975-3.993,4.219-7.65a57.312,57.312,0,0,1,4.7-6.615q.468-.588,1-1.2a2.767,2.767,0,0,1,1.254-.849v.1a5.139,5.139,0,0,1-.269,1.434q-.248.758-.471,1.358-.756,2.046-1.594,4.382t-1.468,4.633a66.885,66.885,0,0,0-1.514,6.685,40.894,40.894,0,0,0-.6,6.737v2.456a12.523,12.523,0,0,0,.345,2.892,9.06,9.06,0,0,0,1.1,2.59,2.933,2.933,0,0,0,1.244,1.156,3.542,3.542,0,0,0,1.549.325Z" transform="translate(-453.798 334.331)" fill="#fff" fill-rule="evenodd"/>
  </g>
</svg>
