<svg xmlns="http://www.w3.org/2000/svg" xmlns:xlink="http://www.w3.org/1999/xlink" width="1920" height="139.45" viewBox="0 0 1920 139.45">
  <defs>
    <clipPath id="clip-path">
      <rect id="Rectangle_8" data-name="Rectangle 8" width="1920" height="139.45" fill="#433633"/>
    </clipPath>
  </defs>
  <g id="Group_2" data-name="Group 2" transform="translate(0 0)">
    <g id="Group_1" data-name="Group 1" transform="translate(0 0)" clip-path="url(#clip-path)">
      <path id="Path_1" data-name="Path 1" d="M1918.671.057c1.916-.361,1.2,1.079,1.2,1.8q0,67.156.119,134.431c0,2.634-.48,3.59-3.114,2.991a16.587,16.587,0,0,0-2.392,0q-954.547,0-1908.975.119C.956,139.4,0,138.439,0,133.889.238,93.308.119,52.727.119,12.149c.718.238,1.559.357,2.277.6,52.416,17.476,89.426,37.1,99.955,43.334,6.1,3.613,111.99,64.654,202.138,36.184,22.437-7.085,52.815-22.529,100.7-25.432a234.673,234.673,0,0,1,37.728.622c8.89.9,37.908-1.647,76.255,21.189,32.9,19.592,51.352,25.736,52.911,26.1,33.224,7.645,41.556-12.376,87.779-10.629,27.487,1.041,27.41,8.229,57.254,8.886a196.155,196.155,0,0,0,66.847-10.468c45.381-15.694,42.121-34.948,81.224-49.747,29.537-11.178,32.517-.614,97.5-9.032,34.817-4.508,33.911-7.534,85.59-16.159,51.291-8.563,76.938-12.841,96.127-11.493,50.865,3.579,55.254,23.044,113.668,28.785,38.2,3.756,36.557-4.547,75.948-1.133,56.122,4.865,63.3,22.049,116,28.731,14.35,1.82,57.277,6.851,106.9-7.181,49.429-13.978,54.6-32.479,106.871-42.132,21.734-4.017,41.146-4.57,70.057-5.391,40.531-1.156,44.751,1.97,79.357-.445,19.154-1.336,39.18-4.04,67.4-9.012,16.6-2.926,29.917-6.152,38.066-8.26" transform="translate(0 0.002)" fill="#433633" fill-rule="evenodd"/>
    </g>
  </g>
</svg>
