<svg id="info" xmlns="http://www.w3.org/2000/svg" width="8.671" height="8.671" viewBox="0 0 8.671 8.671">
  <path id="Path_287" data-name="Path 287" d="M235.391,107.029a.361.361,0,1,1-.361-.361A.361.361,0,0,1,235.391,107.029Zm0,0" transform="translate(-230.694 -104.861)"/>
  <path id="Path_288" data-name="Path 288" d="M203.571,195.613a.271.271,0,0,1-.271-.271v-2.8h-.361a.271.271,0,1,1,0-.542h.632a.271.271,0,0,1,.271.271v3.071A.271.271,0,0,1,203.571,195.613Zm0,0" transform="translate(-199.236 -188.748)"/>
  <path id="Path_289" data-name="Path 289" d="M4.336,8.671A4.336,4.336,0,1,1,8.671,4.336,4.34,4.34,0,0,1,4.336,8.671Zm0-8.129A3.794,3.794,0,1,0,8.129,4.336,3.8,3.8,0,0,0,4.336.542Zm0,0"/>
  <path id="Path_290" data-name="Path 290" d="M193.9,373.874h-1.626a.271.271,0,0,1,0-.542H193.9a.271.271,0,0,1,0,.542Zm0,0" transform="translate(-188.748 -367.009)"/>
</svg>
