<svg xmlns="http://www.w3.org/2000/svg" width="30" height="30" viewBox="0 0 30 30">
  <g id="_002-instagram" data-name="002-instagram" transform="translate(0)">
    <g id="Group_579" data-name="Group 579" transform="translate(0)">
      <g id="Group_578" data-name="Group 578">
        <path id="Path_282" data-name="Path 282" d="M15,0A15,15,0,1,0,30,15,15,15,0,0,0,15,0Zm0,28.636A13.636,13.636,0,1,1,28.636,15,13.636,13.636,0,0,1,15,28.636Z" fill="#fff"/>
        <path id="Path_283" data-name="Path 283" d="M150.883,139.636h-8.435a2.812,2.812,0,0,0-2.812,2.812v8.435a2.812,2.812,0,0,0,2.812,2.812h8.435a2.812,2.812,0,0,0,2.812-2.812v-8.435A2.812,2.812,0,0,0,150.883,139.636Zm-1.406,2.109h2.109v2.109h-2.109Zm-2.812,2.109a2.812,2.812,0,1,1-2.812,2.812A2.812,2.812,0,0,1,146.666,143.854Zm5.623,7.029a1.406,1.406,0,0,1-1.406,1.406h-8.435a1.406,1.406,0,0,1-1.406-1.406v-4.92h1.476a4.217,4.217,0,1,0,8.365.7,4.167,4.167,0,0,0-.07-.7h1.476v4.92Z" transform="translate(-131.666 -131.665)" fill="#fff"/>
      </g>
    </g>
  </g>
</svg>
