<svg xmlns="http://www.w3.org/2000/svg" xmlns:xlink="http://www.w3.org/1999/xlink" width="279.998" height="140" viewBox="0 0 279.998 140">
  <defs>
    <clipPath id="clip-path">
      <rect id="Rectangle_11" data-name="Rectangle 11" width="279.998" height="140" fill="none"/>
    </clipPath>
  </defs>
  <g id="Group_550" data-name="Group 550" transform="translate(0 0)">
    <path id="Path_2" data-name="Path 2" d="M13.3,76.056,7.967,88.627,2.58,76.056H0l7.7,17.98H8.3l7.586-17.98Z" transform="translate(0 45.832)" fill="#fff"/>
    <path id="Path_3" data-name="Path 3" d="M17.914,76.056v2.282h6.142V93.957H26.63V78.338h6.246V76.056Z" transform="translate(7.396 45.832)" fill="#fff"/>
    <g id="Group_4" data-name="Group 4" transform="translate(0 0)">
      <g id="Group_3" data-name="Group 3" clip-path="url(#clip-path)">
        <path id="Path_4" data-name="Path 4" d="M33.39,78.484h-.855v6.292h1.084a8.056,8.056,0,0,0,2.976-.37,2.789,2.789,0,0,0,1.255-1.12,3.253,3.253,0,0,0,.451-1.7,3.042,3.042,0,0,0-.5-1.706A2.666,2.666,0,0,0,36.394,78.8a10.129,10.129,0,0,0-3-.313M29.666,96.013V76.055h5a7.221,7.221,0,0,1,4.809,1.5,5.024,5.024,0,0,1,1.778,4.055,4.993,4.993,0,0,1-3.369,4.912,8.852,8.852,0,0,1,1.873,1.715,34.776,34.776,0,0,1,2.572,3.788q1.042,1.7,1.671,2.56l1.057,1.429h-3.4l-.87-1.315c-.03-.049-.087-.129-.172-.244l-.556-.786-.885-1.459L38.22,90.65A15.412,15.412,0,0,0,36.6,88.692a6.157,6.157,0,0,0-1.328-1.049,4.484,4.484,0,0,0-1.994-.32h-.742v8.691Z" transform="translate(17.065 43.75)" fill="#fff" fill-rule="evenodd"/>
        <path id="Path_5" data-name="Path 5" d="M52.663,87.6l-3.243-7.23L46.4,87.6ZM48.427,75.981H50.44l8.943,20.075H56.459L53.8,90.146H45.294L42.8,96.056H39.864Z" transform="translate(22.932 43.708)" fill="#fff" fill-rule="evenodd"/>
        <path id="Path_6" data-name="Path 6" d="M64.343,76.056h2.878L58.763,96.1H58.1L49.515,76.056h2.878l6,14.017Z" transform="translate(28.483 43.751)" fill="#fff"/>
        <path id="Path_7" data-name="Path 7" d="M62.408,76.056H73.734V78.6H65.277v6.087h8.165v2.547H65.277v6.233H74v2.546H62.408Z" transform="translate(35.9 43.751)" fill="#fff"/>
        <path id="Path_8" data-name="Path 8" d="M71.719,76.056h2.869V93.41h8.984v2.6H71.719Z" transform="translate(41.256 43.751)" fill="#fff"/>
        <path id="Path_9" data-name="Path 9" d="M103.011,76.056h2.722V96.014h-2.465L89.928,80.645v15.37H87.236V76.056h2.322l13.453,15.5Z" transform="translate(50.182 43.751)" fill="#fff"/>
        <path id="Path_10" data-name="Path 10" d="M101.525,76.056h11.326V78.6h-8.457v6.087h8.164v2.547h-8.164v6.233h8.721v2.546H101.525Z" transform="translate(58.402 43.751)" fill="#fff"/>
        <path id="Path_11" data-name="Path 11" d="M109.9,76.056h16.682V78.6h-6.966V96.014h-2.869V78.6H109.9Z" transform="translate(63.222 43.751)" fill="#fff"/>
        <path id="Path_12" data-name="Path 12" d="M149.027,76.056h2.851L143.816,96.1h-.638l-6.533-16.231L130.077,96.1H129.4l-8.021-20.047h2.88l5.505,13.76,5.542-13.76h2.733l5.539,13.76Z" transform="translate(69.825 43.751)" fill="#fff"/>
        <path id="Path_13" data-name="Path 13" d="M151.731,78.592a7.733,7.733,0,0,0-5.625,2.142,7.306,7.306,0,0,0-2.2,5.472,7.175,7.175,0,0,0,2.21,5.372,8.2,8.2,0,0,0,11.1-.043,7.312,7.312,0,0,0,2.231-5.444,7.141,7.141,0,0,0-2.231-5.335,7.575,7.575,0,0,0-5.482-2.164m-.107-2.722a10.724,10.724,0,0,1,7.7,2.93,9.729,9.729,0,0,1,3.076,7.349,9.572,9.572,0,0,1-3.1,7.312,11.034,11.034,0,0,1-7.829,2.9,10.4,10.4,0,0,1-7.514-2.9,9.657,9.657,0,0,1-3-7.256,9.878,9.878,0,0,1,3.024-7.405,10.554,10.554,0,0,1,7.651-2.93" transform="translate(81.08 43.644)" fill="#fff" fill-rule="evenodd"/>
        <path id="Path_14" data-name="Path 14" d="M159.842,78.484h-.855v6.292h1.084a8.056,8.056,0,0,0,2.976-.37,2.781,2.781,0,0,0,1.255-1.12,3.238,3.238,0,0,0,.451-1.7,3.053,3.053,0,0,0-.5-1.706,2.676,2.676,0,0,0-1.407-1.077,10.129,10.129,0,0,0-3-.313m-3.724,17.529V76.055h5a7.221,7.221,0,0,1,4.809,1.5,5.024,5.024,0,0,1,1.778,4.055,4.993,4.993,0,0,1-3.369,4.912,8.814,8.814,0,0,1,1.873,1.715,34.546,34.546,0,0,1,2.572,3.788q1.044,1.7,1.671,2.56l1.057,1.429h-3.4l-.871-1.315a2.941,2.941,0,0,0-.172-.244l-.556-.786-.885-1.459-.956-1.559a15.556,15.556,0,0,0-1.619-1.958,6.2,6.2,0,0,0-1.33-1.049,4.48,4.48,0,0,0-1.993-.32h-.744v8.691Z" transform="translate(89.806 43.75)" fill="#fff" fill-rule="evenodd"/>
        <path id="Path_15" data-name="Path 15" d="M178.223,76.056h3.588l-8.654,9.469,10.79,10.49h-3.921l-10.184-9.859v9.859h-2.869V76.056h2.869v9.127Z" transform="translate(96.051 43.751)" fill="#fff"/>
        <rect id="Rectangle_10" data-name="Rectangle 10" width="102.136" height="104.841" transform="translate(88.3 2.023)" fill="#be061b"/>
        <path id="Path_16" data-name="Path 16" d="M75.357,94.02a3.594,3.594,0,0,0,1.35-.277,5.378,5.378,0,0,0,1.375-.832A10.8,10.8,0,0,0,79.553,91.3q.647-.877,1.219-1.816,1.2-1.947,2.229-3.995t1.977-4.146q2.753-6,5.137-12.161T94.5,56.715a2.971,2.971,0,0,1,.5-.983.937.937,0,0,1,.75-.329,2.541,2.541,0,0,1,.4.035,2.3,2.3,0,0,1,.476.134,12.275,12.275,0,0,0,2.026.484,13.994,13.994,0,0,0,2.078.156c.3,0,.6-.008.892-.025s.591-.043.892-.076a7.181,7.181,0,0,0,2.78-.821,5.109,5.109,0,0,0,2-2.106c.068-.139.134-.29.2-.454s.121-.317.173-.455a1.447,1.447,0,0,0,.046-.169.721.721,0,0,0,.02-.167.3.3,0,0,0-.134-.269.781.781,0,0,0-.249-.135.731.731,0,0,0-.222-.033.564.564,0,0,0-.421.214,2.624,2.624,0,0,0-.32.491,4.091,4.091,0,0,1-2.194,1.936,7.451,7.451,0,0,1-2.549.318,8.634,8.634,0,0,1-2.045-.265,16.384,16.384,0,0,1-1.993-.643,8.606,8.606,0,0,1-1.189-.517.639.639,0,0,1-.358-.594,2.527,2.527,0,0,1,.076-.55q.076-.331.227-.829,1.47-4.891,2.947-9.778t2.873-9.8a82.6,82.6,0,0,0,2.265-10,64.559,64.559,0,0,0,.829-10.181q0-1.673-.1-3.4a25.975,25.975,0,0,0-.273-2.744,13.393,13.393,0,0,0-.7-2.672A4.455,4.455,0,0,0,102.942.627,2.683,2.683,0,0,0,101.192,0a3.608,3.608,0,0,0-1.126.2,6.193,6.193,0,0,0-1.229.575,8.179,8.179,0,0,0-1.252.989q-.577.553-1.1,1.164a23.333,23.333,0,0,0-2.355,3.262,34.228,34.228,0,0,0-1.849,3.566,69.862,69.862,0,0,0-4.231,12.118,78.8,78.8,0,0,0-2.06,12.673q-.076.936-.121,1.884t-.047,1.884a32.82,32.82,0,0,0,.219,3.831,27.584,27.584,0,0,0,.723,3.806,17.561,17.561,0,0,0,1.69,4.162,9.3,9.3,0,0,0,3.054,3.2,2.946,2.946,0,0,1,.841.778,1.407,1.407,0,0,1,.235.8,3.772,3.772,0,0,1-.269,1.244q-1.484,4.291-3.121,8.524t-3.473,8.4q-1.493,3.414-3.108,6.774a69.556,69.556,0,0,1-3.587,6.547q-.614,1.021-1.32,1.993a8.828,8.828,0,0,1-1.673,1.741,1.331,1.331,0,0,1-.635-.512,1.992,1.992,0,0,1-.206-.564c-.156-.506-.307-1.016-.458-1.534s-.279-1.038-.383-1.561q-1.961-10.978-3.087-22.058T69.435,41.679q-.319-5.274-.468-10.546t-.542-10.546q-.069-.808-.181-1.607a9.124,9.124,0,0,0-.358-1.555,1.522,1.522,0,0,0-.5-.761,1.392,1.392,0,0,0-.879-.282,1.238,1.238,0,0,0-.833.3,1.687,1.687,0,0,0-.479.778,8.426,8.426,0,0,0-.32,1.451,14.664,14.664,0,0,0-.118,1.476q-.444,7.679-.436,15.305-.007,9.109.655,18.17t2.07,18.093q.6,3.965,1.391,7.9t1.871,7.805q.314,1.165.736,2.3A9.989,9.989,0,0,0,72.16,92.1a4.759,4.759,0,0,0,1.471,1.438,3.331,3.331,0,0,0,1.725.479M93.724,51.67A7.8,7.8,0,0,1,91.6,49.42a11.819,11.819,0,0,1-1.169-2.629,18.063,18.063,0,0,1-.706-3.169,24.2,24.2,0,0,1-.2-3.221q.007-1.009.066-2.018A84.929,84.929,0,0,1,91.848,23.11a77.584,77.584,0,0,1,5.14-14.566,21.04,21.04,0,0,1,1.363-2.527,13.916,13.916,0,0,1,1.766-2.249,4.516,4.516,0,0,1,.668-.577,1.013,1.013,0,0,1,.543-.2.636.636,0,0,1,.521.332,3.859,3.859,0,0,1,.421,1.014,17.826,17.826,0,0,1,.436,2q.163,1.014.236,2.073.1,1.614.1,3.229a60.069,60.069,0,0,1-.731,9.108,88.986,88.986,0,0,1-1.893,8.955q-1.342,5.1-2.876,10.146T94.364,49.921Z" transform="translate(37.001 0)" fill="#fff" fill-rule="evenodd"/>
        <path id="Path_17" data-name="Path 17" d="M102.1,77.978a3.468,3.468,0,0,0,2.287-.909,6.412,6.412,0,0,0,1.005-1.118,11.363,11.363,0,0,0,.778-1.27,27.063,27.063,0,0,0,1.3-2.812q.572-1.448,1.022-2.939,2.817-9.192,5.584-18.435.4-1.3.707-2.657l.033-.2c0-.241-.14-.4-.438-.471h-.068a.633.633,0,0,0-.29.063.468.468,0,0,0-.214.239l-.471,1.279q-1.42,4.5-2.892,8.947-1.068,3.339-2.221,6.652t-2.624,6.5q-.4.886-.879,1.728a11.42,11.42,0,0,1-1.106,1.6,4.5,4.5,0,0,1-.635.622.889.889,0,0,1-.509.219.633.633,0,0,1-.5-.282,3.422,3.422,0,0,1-.446-.862,9.521,9.521,0,0,1-.6-2.082,20.478,20.478,0,0,1-.244-2.157q-.1-1.725-.1-3.4a75.636,75.636,0,0,1,.454-7.93q.437-3.946,1.06-7.881.917-5.957,2.182-11.84t3.065-11.639a2.994,2.994,0,0,1,.884-1.492,2.9,2.9,0,0,1,1.64-.561q5.073-.482,10.16-1.043t10.159-1.144a25.41,25.41,0,0,0,2.813-.441,15,15,0,0,0,2.739-.871,1.354,1.354,0,0,0,.444-.265.586.586,0,0,0,.194-.441v-.134a.64.64,0,0,0-.673-.539,1.381,1.381,0,0,0-.219.02c-.077.014-.15.03-.219.047q-.881.215-1.769.449a11.486,11.486,0,0,1-1.8.325q-5.2.5-10.4.967t-10.425.917c-.15.019-.3.039-.458.063a3.957,3.957,0,0,1-.484.038,1.53,1.53,0,0,1-.425-.06,1.573,1.573,0,0,1-.449-.21v-.1a3.087,3.087,0,0,1,.214-1.052q.2-.5.391-1,1.574-4.088,3.1-8.174a8.863,8.863,0,0,0,.383-1.219,5.655,5.655,0,0,0,.156-1.27V9.591a2.219,2.219,0,0,0-.312-1.1,2.009,2.009,0,0,0-.866-.75,1.8,1.8,0,0,0-.807-.2,1.759,1.759,0,0,0-.682.143,2.53,2.53,0,0,0-.63.4,4.19,4.19,0,0,0-.8.846q-.324.463-.617.97a51.315,51.315,0,0,0-2.7,4.793q-1.219,2.467-2.317,5-.4,1.049-.788,2.171a2.724,2.724,0,0,1-1.164,1.564,6.373,6.373,0,0,1-2.01.487q-1.068.087-2.161.186-3.313.359-6.607.8a36.379,36.379,0,0,0-6.481,1.484q-2.077.714-2.086,1.582a.847.847,0,0,0,.03.217.64.64,0,0,0,.106.219,1.381,1.381,0,0,0,.542.614,1.312,1.312,0,0,0,.668.159,3.331,3.331,0,0,0,.725-.1c.244-.06.485-.117.723-.172q2.068-.487,4.138-.959t4.137-.859q1.893-.369,3.815-.668a29.028,29.028,0,0,1,3.889-.34,4.675,4.675,0,0,1-.214,1.353c-.132.4-.263.807-.391,1.2a144.742,144.742,0,0,0-3.516,14.848,87.152,87.152,0,0,0-1.4,15.126q.007,2.412.167,4.877a48,48,0,0,0,.521,4.907,26.511,26.511,0,0,0,1.229,4.781,13.97,13.97,0,0,0,.879,1.994A7.3,7.3,0,0,0,99.647,76.9a4.1,4.1,0,0,0,1.191.8,3.142,3.142,0,0,0,1.265.274" transform="translate(47.336 4.336)" fill="#fff"/>
        <path id="Path_18" data-name="Path 18" d="M119.944,65.2a3.347,3.347,0,0,0,1.093-.227,3.784,3.784,0,0,0,1.093-.682,7.19,7.19,0,0,0,1.178-1.181,13.17,13.17,0,0,0,1.076-1.711,27.987,27.987,0,0,0,1.393-2.809q.6-1.406,1.164-2.911,1.767-4.648,3.128-8.847T133,38.39a8.122,8.122,0,0,0,.471-1.547l.035-.2a.523.523,0,0,0-.088-.312.432.432,0,0,0-.315-.159.718.718,0,0,0-.307.088.477.477,0,0,0-.232.214c-.17.288-.336.588-.493.9a9.514,9.514,0,0,0-.416.951l-4.272,11q-1.03,2.58-2.136,5.016T122.9,58.979a13.289,13.289,0,0,1-.907,1.5,4.935,4.935,0,0,1-1.413,1.325,10.272,10.272,0,0,1-.5-1.99,14.274,14.274,0,0,1-.143-2.114q.007-1.252.169-3.062.248-2.6.718-5t1.2-5.138q.728-2.731,1.75-6.306a43.416,43.416,0,0,0,.959-4.267,28.611,28.611,0,0,0,.455-4.345v-.3a3.843,3.843,0,0,0-.216-1.429,1.84,1.84,0,0,0-1-1.027,1.49,1.49,0,0,0-.4-.134,2.168,2.168,0,0,0-.4-.035,3.241,3.241,0,0,0-1.1.211,3.783,3.783,0,0,0-1.022.564,18.1,18.1,0,0,0-2.385,2.283,32.817,32.817,0,0,0-2.056,2.561q-2.023,2.755-4.2,6.03t-4.45,7.29a15.193,15.193,0,0,1-.9,1.383,7.8,7.8,0,0,1-1.181,1.309,2.286,2.286,0,0,1-.194-.662,4.029,4.029,0,0,1-.041-.583v-.775q.04-1.411.274-3.229t.583-3.677q.347-1.86.723-3.387l.068-.64a2.056,2.056,0,0,0-.26-1.063,1.983,1.983,0,0,0-.917-.788,1.789,1.789,0,0,0-.707-.134,1.692,1.692,0,0,0-1.043.362,2.922,2.922,0,0,0-.841,1.118,22.971,22.971,0,0,0-1.163,3.488q-.534,2.056-.859,4.137a24.79,24.79,0,0,0-.334,3.577,20.662,20.662,0,0,0,.606,4.945,3.735,3.735,0,0,0,.836,1.749,2.648,2.648,0,0,0,1.72.841l.336.035a2.419,2.419,0,0,0,1.539-.559,5.01,5.01,0,0,0,1.085-1.292q.763-1.231,1.493-2.464t1.366-2.514q1.975-3.993,4.219-7.649a57.449,57.449,0,0,1,4.7-6.614q.468-.588,1-1.2a2.767,2.767,0,0,1,1.254-.849v.1a5.14,5.14,0,0,1-.269,1.433q-.248.758-.471,1.358-.756,2.046-1.594,4.381t-1.468,4.634a66.721,66.721,0,0,0-1.514,6.687,40.877,40.877,0,0,0-.6,6.736v2.454a12.526,12.526,0,0,0,.345,2.894,9.087,9.087,0,0,0,1.1,2.591,2.929,2.929,0,0,0,1.244,1.155,3.542,3.542,0,0,0,1.548.325Z" transform="translate(58.199 15.33)" fill="#fff" fill-rule="evenodd"/>
      </g>
    </g>
  </g>
</svg>
