<svg xmlns="http://www.w3.org/2000/svg" xmlns:xlink="http://www.w3.org/1999/xlink" width="1920" height="139.448" viewBox="0 0 1920 139.448">
  <defs>
    <clipPath id="clip-path">
      <rect id="Rectangle_25" data-name="Rectangle 25" width="1920" height="139.448" fill="#fff"/>
    </clipPath>
  </defs>
  <g id="Group_12" data-name="Group 12" transform="translate(1920 139.448) rotate(180)" clip-path="url(#clip-path)">
    <path id="Path_28" data-name="Path 28" d="M1918.671.056c1.915-.359,1.2,1.077,1.2,1.8q0,67.156.12,134.431c0,2.634-.479,3.591-3.112,2.993a15.962,15.962,0,0,0-2.394,0q-954.547,0-1908.975.12C.958,139.4,0,138.438,0,133.889.239,93.308.12,52.728.12,12.147c.718.239,1.556.359,2.274.6C35.793,27.11,69.55,40.637,102.35,56.079a318.1,318.1,0,0,0,68.874,23.248c15.8,3.364,42.522,9.136,73.458,6.8,65.6-4.957,75.152-40.581,129.883-38.067,31.932,1.466,59.6,15.014,68.353,19.393,30.407,15.212,33.69,27.473,62.128,38.067,23.24,8.658,22.877,1.153,67.036,9.217,43.412,7.928,52.038,16.976,86.244,17.309a229.213,229.213,0,0,0,41.6-3.422c29.209-5.147,56.741-14.963,84.035-26.1,33.279-13.647,65.719-28.969,99.836-40.581,25.737-8.858,52.193-13.527,78.887-18.2,28.61-5.028,56.981-11.372,85.591-16.161,53.124-8.891,79.8-12.611,96.125-11.492,61.66,4.229,72.7,33.555,136.347,33.159,27.652-.172,25.1-5.7,53.27-5.507,60.287.423,66.848,25.731,116,28.73C1491.855,75.032,1492.223,57,1587.2,42.074c25.756-4.049,38.634-6.073,57.579-6.7,55.724-1.854,68.755,11.1,107.617,3.112,29.552-6.073,25.635-14.306,60.807-21.154,37.213-7.245,46.084-5.256,67.4-9.013,16.6-2.924,29.92-6.151,38.067-8.26" transform="translate(0 0)" fill="#fff" fill-rule="evenodd"/>
  </g>
</svg>
