<svg xmlns="http://www.w3.org/2000/svg" xmlns:xlink="http://www.w3.org/1999/xlink" width="675.655" height="49.072" viewBox="0 0 675.655 49.072">
  <defs>
    <clipPath id="clip-path">
      <rect id="Rectangle_25" data-name="Rectangle 25" width="675.655" height="49.072" fill="#f3f3f3"/>
    </clipPath>
  </defs>
  <g id="Group_12" data-name="Group 12" clip-path="url(#clip-path)">
    <path id="Path_28" data-name="Path 28" d="M675.188.02c.674-.126.421.379.421.632q0,23.632.042,47.307c0,.927-.168,1.264-1.1,1.053a5.617,5.617,0,0,0-.843,0q-335.909,0-671.775.042C.337,49.054,0,48.717,0,47.116.084,32.835.042,18.555.042,4.274c.253.084.548.126.8.211C12.6,9.54,24.475,14.3,36.017,19.734a111.94,111.94,0,0,0,24.237,8.181c5.56,1.184,14.964,3.215,25.85,2.392,23.084-1.744,26.446-14.281,45.706-13.4,11.237.516,20.974,5.283,24.054,6.824,10.7,5.353,11.856,9.668,21.863,13.4,8.178,3.047,8.051.406,23.59,3.244,15.277,2.79,18.312,5.974,30.35,6.091a80.661,80.661,0,0,0,14.64-1.2c10.279-1.811,19.967-5.266,29.572-9.183,11.711-4.8,23.127-10.194,35.133-14.281,9.057-3.117,18.367-4.76,27.761-6.4,10.068-1.769,20.052-4,30.12-5.687,18.694-3.129,28.083-4.438,33.827-4.044,21.7,1.488,25.582,11.808,47.981,11.669,9.731-.061,8.834-2.007,18.746-1.938,21.215.149,23.524,9.055,40.82,10.11,14.723.9,14.853-5.446,48.276-10.7,9.064-1.425,13.6-2.137,20.262-2.359,19.609-.653,24.2,3.905,37.871,1.1,10.4-2.137,9.021-5.034,21.4-7.444,13.1-2.549,16.217-1.85,23.718-3.172C667.633,1.9,672.321.762,675.188.02" transform="translate(0 0)" fill="#f3f3f3" fill-rule="evenodd"/>
  </g>
</svg>
