<svg id="printing" xmlns="http://www.w3.org/2000/svg" width="14.904" height="13.852" viewBox="0 0 14.904 13.852">
  <g id="Group_569" data-name="Group 569" transform="translate(4.802 11.113)">
    <g id="Group_568" data-name="Group 568">
      <path id="Path_277" data-name="Path 277" d="M169.779,399.834h-4.306a.5.5,0,1,0,0,.994h4.305a.5.5,0,0,0,0-.994Z" transform="translate(-164.977 -399.834)" fill="#fff"/>
    </g>
  </g>
  <g id="Group_571" data-name="Group 571" transform="translate(4.802 9.546)">
    <g id="Group_570" data-name="Group 570">
      <path id="Path_278" data-name="Path 278" d="M169.779,346.006h-4.306a.5.5,0,1,0,0,.994h4.305a.5.5,0,0,0,0-.994Z" transform="translate(-164.977 -346.006)" fill="#fff"/>
    </g>
  </g>
  <g id="Group_573" data-name="Group 573" transform="translate(0 0)">
    <g id="Group_572" data-name="Group 572">
      <path id="Path_279" data-name="Path 279" d="M13.744,21.437H12.164V18.562a.5.5,0,0,0-.5-.5H3.237a.5.5,0,0,0-.5.5v2.875H1.159A1.161,1.161,0,0,0,0,22.6v5a1.16,1.16,0,0,0,1.159,1.159H2.74V31.42a.5.5,0,0,0,.5.5h8.43a.5.5,0,0,0,.5-.5V28.753h1.581A1.16,1.16,0,0,0,14.9,27.594v-5A1.161,1.161,0,0,0,13.744,21.437ZM3.733,19.059H11.17v2.378H3.733ZM11.17,30.923H3.734V26.859H11.17C11.17,26.982,11.17,30.83,11.17,30.923Zm.5-6.569H10.4a.5.5,0,0,1,0-.994h1.265a.5.5,0,0,1,0,.994Z" transform="translate(0 -18.065)" fill="#fff"/>
    </g>
  </g>
</svg>
