<svg xmlns="http://www.w3.org/2000/svg" xmlns:xlink="http://www.w3.org/1999/xlink" width="1930" height="139.448" viewBox="0 0 1930 139.448">
  <defs>
    <clipPath id="clip-path">
      <rect id="Rectangle_25" data-name="Rectangle 25" width="1930" height="139.448" fill="#f3f3f3"/>
    </clipPath>
  </defs>
  <g id="Group_13" data-name="Group 13" transform="translate(2.269 -2)">
    <g id="Group_12" data-name="Group 12" transform="translate(-2.269 2)" clip-path="url(#clip-path)">
      <path id="Path_28" data-name="Path 28" d="M1928.664.056c1.925-.359,1.2,1.077,1.2,1.8q0,67.156.12,134.432c0,2.634-.481,3.591-3.128,2.993a16.128,16.128,0,0,0-2.407,0q-959.519,0-1918.918.12C.963,139.4,0,138.438,0,133.889.241,93.308.12,52.728.12,12.147c.722.239,1.564.359,2.286.6C35.979,27.11,69.912,40.637,102.883,56.079a320.9,320.9,0,0,0,69.232,23.248c15.881,3.364,42.744,9.136,73.841,6.8C311.9,81.169,321.5,45.545,376.516,48.059c32.1,1.466,59.912,15.014,68.709,19.393,30.565,15.212,33.866,27.473,62.452,38.067,23.361,8.658,23,1.153,67.385,9.217,43.638,7.928,52.309,16.976,86.694,17.309a231.578,231.578,0,0,0,41.82-3.422c29.361-5.147,57.037-14.963,84.472-26.1C821.5,88.879,854.109,73.557,888.4,61.945c25.871-8.858,52.464-13.527,79.3-18.2,28.759-5.028,57.278-11.372,86.037-16.161,53.4-8.891,80.22-12.611,96.626-11.492,61.981,4.229,73.075,33.555,137.057,33.159,27.8-.172,25.234-5.7,53.547-5.507,60.6.423,67.2,25.731,116.6,28.73C1499.626,75.032,1500,57,1595.468,42.074c25.891-4.049,38.836-6.073,57.879-6.7,56.014-1.854,69.113,11.1,108.178,3.112,29.706-6.073,25.769-14.306,61.123-21.154,37.407-7.245,46.324-5.256,67.751-9.013,16.685-2.924,30.075-6.151,38.265-8.26" transform="translate(0 0)" fill="#f3f3f3" fill-rule="evenodd"/>
    </g>
  </g>
</svg>
