<svg id="_001-twitter" data-name="001-twitter" xmlns="http://www.w3.org/2000/svg" width="30" height="30" viewBox="0 0 30 30">
  <g id="Group_577" data-name="Group 577">
    <g id="Group_576" data-name="Group 576">
      <path id="Path_280" data-name="Path 280" d="M164.945,163.337a5.84,5.84,0,0,1-1.835.7,2.9,2.9,0,0,0-2.109-.9,2.861,2.861,0,0,0-2.882,2.812,2.814,2.814,0,0,0,.077.647,8.231,8.231,0,0,1-5.947-2.966,2.776,2.776,0,0,0,.893,3.768,2.91,2.91,0,0,1-1.307-.359v.035a2.854,2.854,0,0,0,2.313,2.812,2.946,2.946,0,0,1-1.3.049,2.882,2.882,0,0,0,2.692,1.968,5.841,5.841,0,0,1-3.564,1.23,5.981,5.981,0,0,1-.7-.042,8.259,8.259,0,0,0,4.421,1.279,8.083,8.083,0,0,0,8.23-7.934q0-.071,0-.142v-.366a5.841,5.841,0,0,0,1.406-1.469,5.833,5.833,0,0,1-1.659.45A2.861,2.861,0,0,0,164.945,163.337Z" transform="translate(-142.639 -153.749)" fill="#fff"/>
      <path id="Path_281" data-name="Path 281" d="M15,0A15,15,0,1,0,30,15,15,15,0,0,0,15,0Zm0,28.636A13.636,13.636,0,1,1,28.636,15,13.636,13.636,0,0,1,15,28.636Z" fill="#fff"/>
    </g>
  </g>
</svg>
